<mxfile host="app.diagrams.net" agent="Mozilla/5.0 (Windows NT 10.0; Win64; x64) AppleWebKit/537.36 (KHTML, like Gecko) Chrome/134.0.0.0 Safari/537.36 OPR/119.0.0.0" version="27.1.6">
  <diagram name="Page-1" id="Q-19vBVYPwlLJmu7dDHV">
    <mxGraphModel dx="1985" dy="757" grid="1" gridSize="10" guides="1" tooltips="1" connect="1" arrows="1" fold="1" page="1" pageScale="1" pageWidth="827" pageHeight="1169" math="0" shadow="0">
      <root>
        <mxCell id="0" />
        <mxCell id="1" parent="0" />
        <mxCell id="cmodVnr4i68VkvNUecE8-7" value="" style="edgeStyle=orthogonalEdgeStyle;rounded=0;orthogonalLoop=1;jettySize=auto;html=1;" edge="1" parent="1" source="cmodVnr4i68VkvNUecE8-1" target="cmodVnr4i68VkvNUecE8-2">
          <mxGeometry relative="1" as="geometry" />
        </mxCell>
        <mxCell id="cmodVnr4i68VkvNUecE8-9" style="edgeStyle=orthogonalEdgeStyle;rounded=0;orthogonalLoop=1;jettySize=auto;html=1;entryX=0;entryY=0.5;entryDx=0;entryDy=0;" edge="1" parent="1" source="cmodVnr4i68VkvNUecE8-1" target="cmodVnr4i68VkvNUecE8-3">
          <mxGeometry relative="1" as="geometry">
            <Array as="points">
              <mxPoint x="130" y="170" />
              <mxPoint x="130" y="250" />
            </Array>
          </mxGeometry>
        </mxCell>
        <mxCell id="cmodVnr4i68VkvNUecE8-10" style="edgeStyle=orthogonalEdgeStyle;rounded=0;orthogonalLoop=1;jettySize=auto;html=1;entryX=0;entryY=0.5;entryDx=0;entryDy=0;" edge="1" parent="1" source="cmodVnr4i68VkvNUecE8-1" target="cmodVnr4i68VkvNUecE8-4">
          <mxGeometry relative="1" as="geometry">
            <Array as="points">
              <mxPoint x="130" y="170" />
              <mxPoint x="130" y="330" />
            </Array>
          </mxGeometry>
        </mxCell>
        <mxCell id="cmodVnr4i68VkvNUecE8-1" value="&lt;font style=&quot;font-size: 10px;&quot; face=&quot;Times New Roman&quot;&gt;raw EEG data&lt;/font&gt;" style="shape=datastore;whiteSpace=wrap;html=1;fillColor=#bac8d3;strokeColor=#23445d;" vertex="1" parent="1">
          <mxGeometry x="40" y="140" width="60" height="60" as="geometry" />
        </mxCell>
        <mxCell id="cmodVnr4i68VkvNUecE8-20" value="" style="edgeStyle=orthogonalEdgeStyle;rounded=0;orthogonalLoop=1;jettySize=auto;html=1;" edge="1" parent="1" source="cmodVnr4i68VkvNUecE8-2" target="cmodVnr4i68VkvNUecE8-16">
          <mxGeometry relative="1" as="geometry" />
        </mxCell>
        <mxCell id="cmodVnr4i68VkvNUecE8-2" value="&lt;font style=&quot;font-size: 10px;&quot; face=&quot;Courier New&quot;&gt;step1_detect_bad_channels.py&lt;/font&gt;" style="rounded=1;whiteSpace=wrap;html=1;fillColor=#f5f5f5;fontColor=#333333;strokeColor=#666666;" vertex="1" parent="1">
          <mxGeometry x="160" y="140" width="180" height="60" as="geometry" />
        </mxCell>
        <mxCell id="cmodVnr4i68VkvNUecE8-19" value="" style="edgeStyle=orthogonalEdgeStyle;rounded=0;orthogonalLoop=1;jettySize=auto;html=1;" edge="1" parent="1" source="cmodVnr4i68VkvNUecE8-3" target="cmodVnr4i68VkvNUecE8-18">
          <mxGeometry relative="1" as="geometry" />
        </mxCell>
        <mxCell id="cmodVnr4i68VkvNUecE8-3" value="&lt;font style=&quot;font-size: 10px;&quot; face=&quot;Courier New&quot;&gt;step2_inspect_bad_channels.py&lt;/font&gt;" style="rounded=1;whiteSpace=wrap;html=1;fillColor=#f5f5f5;fontColor=#333333;strokeColor=#666666;" vertex="1" parent="1">
          <mxGeometry x="323" y="220" width="180.2" height="60" as="geometry" />
        </mxCell>
        <mxCell id="cmodVnr4i68VkvNUecE8-4" value="&lt;font style=&quot;font-size: 10px;&quot; face=&quot;Courier New&quot;&gt;step3_artifact_detection.py&lt;/font&gt;" style="rounded=1;whiteSpace=wrap;html=1;fillColor=#f5f5f5;fontColor=#333333;strokeColor=#666666;" vertex="1" parent="1">
          <mxGeometry x="495" y="300" width="170" height="60" as="geometry" />
        </mxCell>
        <mxCell id="cmodVnr4i68VkvNUecE8-22" value="" style="edgeStyle=orthogonalEdgeStyle;rounded=0;orthogonalLoop=1;jettySize=auto;html=1;" edge="1" parent="1" source="cmodVnr4i68VkvNUecE8-16" target="cmodVnr4i68VkvNUecE8-3">
          <mxGeometry relative="1" as="geometry" />
        </mxCell>
        <mxCell id="cmodVnr4i68VkvNUecE8-21" value="" style="edgeStyle=orthogonalEdgeStyle;rounded=0;orthogonalLoop=1;jettySize=auto;html=1;" edge="1" parent="1" source="cmodVnr4i68VkvNUecE8-18" target="cmodVnr4i68VkvNUecE8-4">
          <mxGeometry relative="1" as="geometry" />
        </mxCell>
        <mxCell id="cmodVnr4i68VkvNUecE8-33" value="&lt;pre&gt;&lt;font color=&quot;#23445d&quot;&gt;&lt;span style=&quot;font-size: 10px;&quot;&gt;epochs_ica.fif (used to fit models)&lt;/span&gt;&lt;/font&gt;&lt;/pre&gt;" style="text;html=1;align=left;verticalAlign=middle;resizable=0;points=[];autosize=1;strokeColor=none;fillColor=none;" vertex="1" parent="1">
          <mxGeometry x="770" y="225" width="220" height="50" as="geometry" />
        </mxCell>
        <mxCell id="cmodVnr4i68VkvNUecE8-25" value="" style="shape=datastore;whiteSpace=wrap;html=1;fillColor=#bac8d3;strokeColor=#23445d;strokeWidth=1;" vertex="1" parent="1">
          <mxGeometry x="730" y="236.3" width="25.2" height="25" as="geometry" />
        </mxCell>
        <mxCell id="cmodVnr4i68VkvNUecE8-37" value="" style="rounded=0;whiteSpace=wrap;html=1;fillColor=none;dashed=1;dashPattern=1 2;" vertex="1" parent="1">
          <mxGeometry x="700" y="220" width="270" height="140" as="geometry" />
        </mxCell>
        <mxCell id="cmodVnr4i68VkvNUecE8-41" value="" style="group" vertex="1" connectable="0" parent="1">
          <mxGeometry x="333.1" y="120" width="159.99999999999994" height="61.29999999999998" as="geometry" />
        </mxCell>
        <mxCell id="cmodVnr4i68VkvNUecE8-16" value="" style="dashed=0;outlineConnect=0;html=1;align=center;labelPosition=center;verticalLabelPosition=bottom;verticalAlign=top;shape=mxgraph.weblogos.json_2" vertex="1" parent="cmodVnr4i68VkvNUecE8-41">
          <mxGeometry x="43.55000000000001" y="38.69999999999999" width="72.9" height="22.6" as="geometry" />
        </mxCell>
        <mxCell id="cmodVnr4i68VkvNUecE8-29" value="&lt;pre&gt;&lt;font style=&quot;color: light-dark(rgb(35, 68, 93), rgb(237, 237, 237)); font-size: 10px; line-height: 100%;&quot;&gt;ransac_bad_channels.json&lt;/font&gt;&lt;/pre&gt;" style="text;html=1;align=center;verticalAlign=middle;resizable=0;points=[];autosize=1;strokeColor=none;fillColor=none;" vertex="1" parent="cmodVnr4i68VkvNUecE8-41">
          <mxGeometry width="160" height="50" as="geometry" />
        </mxCell>
        <mxCell id="cmodVnr4i68VkvNUecE8-42" value="" style="group" vertex="1" connectable="0" parent="1">
          <mxGeometry x="500" y="200" width="160" height="61.30000000000001" as="geometry" />
        </mxCell>
        <mxCell id="cmodVnr4i68VkvNUecE8-18" value="" style="dashed=0;outlineConnect=0;html=1;align=center;labelPosition=center;verticalLabelPosition=bottom;verticalAlign=top;shape=mxgraph.weblogos.json_2" vertex="1" parent="cmodVnr4i68VkvNUecE8-42">
          <mxGeometry x="44.94999999999993" y="38.69999999999999" width="70.1" height="22.6" as="geometry" />
        </mxCell>
        <mxCell id="cmodVnr4i68VkvNUecE8-30" value="&lt;pre&gt;&lt;font style=&quot;color: light-dark(rgb(35, 68, 93), rgb(237, 237, 237)); font-size: 10px; line-height: 100%;&quot;&gt;inspect_bad_channels.json&lt;/font&gt;&lt;/pre&gt;" style="text;html=1;align=center;verticalAlign=middle;resizable=0;points=[];autosize=1;strokeColor=none;fillColor=none;" vertex="1" parent="cmodVnr4i68VkvNUecE8-42">
          <mxGeometry width="160" height="50" as="geometry" />
        </mxCell>
        <mxCell id="cmodVnr4i68VkvNUecE8-43" value="" style="group" vertex="1" connectable="0" parent="1">
          <mxGeometry x="710" y="307.6" width="227.79999999999995" height="50" as="geometry" />
        </mxCell>
        <mxCell id="cmodVnr4i68VkvNUecE8-23" value="" style="dashed=0;outlineConnect=0;html=1;align=center;labelPosition=center;verticalLabelPosition=bottom;verticalAlign=top;shape=mxgraph.weblogos.json_2" vertex="1" parent="cmodVnr4i68VkvNUecE8-43">
          <mxGeometry y="15" width="60.4" height="20" as="geometry" />
        </mxCell>
        <mxCell id="cmodVnr4i68VkvNUecE8-31" value="&lt;pre&gt;&lt;font style=&quot;color: light-dark(rgb(35, 68, 93), rgb(237, 237, 237)); font-size: 10px; line-height: 100%;&quot;&gt; ica_excluded_components.json&lt;/font&gt;&lt;/pre&gt;" style="text;html=1;align=center;verticalAlign=middle;resizable=0;points=[];autosize=1;strokeColor=none;fillColor=none;" vertex="1" parent="cmodVnr4i68VkvNUecE8-43">
          <mxGeometry x="47.799999999999955" width="180" height="50" as="geometry" />
        </mxCell>
        <mxCell id="cmodVnr4i68VkvNUecE8-44" value="" style="group" vertex="1" connectable="0" parent="1">
          <mxGeometry x="730" y="270" width="185.20000000000005" height="50" as="geometry" />
        </mxCell>
        <mxCell id="cmodVnr4i68VkvNUecE8-28" value="" style="verticalLabelPosition=bottom;html=1;verticalAlign=top;align=center;strokeColor=#23445d;fillColor=#bac8d3;shape=mxgraph.azure.cloud_services_configuration_file;pointerEvents=1;strokeWidth=1;" vertex="1" parent="cmodVnr4i68VkvNUecE8-44">
          <mxGeometry y="10" width="25.2" height="30" as="geometry" />
        </mxCell>
        <mxCell id="cmodVnr4i68VkvNUecE8-34" value="&lt;pre&gt;&lt;font color=&quot;#23445d&quot;&gt;&lt;span style=&quot;font-size: 10px;&quot;&gt; ica.fif (fitted models)&lt;/span&gt;&lt;/font&gt;&lt;/pre&gt;" style="text;html=1;align=center;verticalAlign=middle;resizable=0;points=[];autosize=1;strokeColor=none;fillColor=none;" vertex="1" parent="cmodVnr4i68VkvNUecE8-44">
          <mxGeometry x="25.200000000000045" width="160" height="50" as="geometry" />
        </mxCell>
        <mxCell id="cmodVnr4i68VkvNUecE8-47" style="edgeStyle=orthogonalEdgeStyle;rounded=0;orthogonalLoop=1;jettySize=auto;html=1;entryX=0;entryY=0.786;entryDx=0;entryDy=0;entryPerimeter=0;" edge="1" parent="1" source="cmodVnr4i68VkvNUecE8-4" target="cmodVnr4i68VkvNUecE8-37">
          <mxGeometry relative="1" as="geometry" />
        </mxCell>
        <mxCell id="cmodVnr4i68VkvNUecE8-50" style="edgeStyle=orthogonalEdgeStyle;rounded=0;orthogonalLoop=1;jettySize=auto;html=1;" edge="1" parent="1" source="cmodVnr4i68VkvNUecE8-48">
          <mxGeometry relative="1" as="geometry">
            <mxPoint x="821.2" y="170" as="targetPoint" />
          </mxGeometry>
        </mxCell>
        <mxCell id="cmodVnr4i68VkvNUecE8-48" value="" style="shape=umlActor;verticalLabelPosition=bottom;verticalAlign=top;html=1;" vertex="1" parent="1">
          <mxGeometry x="871.2" y="140" width="30" height="60" as="geometry" />
        </mxCell>
        <mxCell id="cmodVnr4i68VkvNUecE8-51" style="edgeStyle=orthogonalEdgeStyle;rounded=0;orthogonalLoop=1;jettySize=auto;html=1;entryX=0.5;entryY=0;entryDx=0;entryDy=0;startArrow=classic;startFill=1;" edge="1" parent="1" source="cmodVnr4i68VkvNUecE8-49" target="cmodVnr4i68VkvNUecE8-3">
          <mxGeometry relative="1" as="geometry">
            <Array as="points">
              <mxPoint x="700" y="170" />
              <mxPoint x="700" y="200" />
              <mxPoint x="413" y="200" />
            </Array>
          </mxGeometry>
        </mxCell>
        <mxCell id="cmodVnr4i68VkvNUecE8-49" value="" style="verticalLabelPosition=bottom;html=1;verticalAlign=top;align=center;strokeColor=#23445d;fillColor=#bac8d3;shape=mxgraph.azure.computer;pointerEvents=1;" vertex="1" parent="1">
          <mxGeometry x="768.8000000000001" y="147.5" width="50" height="45" as="geometry" />
        </mxCell>
      </root>
    </mxGraphModel>
  </diagram>
</mxfile>
